/* XPM */
static char *_486033236991[] = {
/* columns rows colors chars-per-pixel */
"64 64 256 2 ",
"   c black",
".  c #0000A8",
"X  c #00A800",
"o  c #00A8A8",
"O  c #A80000",
"+  c #A800A8",
"@  c #A85400",
"#  c gray66",
"$  c gray33",
"%  c #5454FC",
"&  c #54FC54",
"*  c #54FCFC",
"=  c #FC5454",
"-  c #FC54FC",
";  c #FCFC54",
":  c gray99",
">  c #ECECEC",
",  c gainsboro",
"<  c #D0D0D0",
"1  c #C0C0C0",
"2  c #B4B4B4",
"3  c gray66",
"4  c #989898",
"5  c gray55",
"6  c #7C7C7C",
"7  c gray44",
"8  c #646464",
"9  c gray33",
"0  c #484848",
"q  c gray22",
"w  c #2C2C2C",
"e  c #202020",
"r  c #FC0000",
"t  c #EC0000",
"y  c #E00000",
"u  c #D40000",
"i  c #C80000",
"p  c #BC0000",
"a  c #B00000",
"s  c #A40000",
"d  c #980000",
"f  c #880000",
"g  c #7C0000",
"h  c #700000",
"j  c #640000",
"k  c #580000",
"l  c #4C0000",
"z  c #400000",
"x  c #FCD8D8",
"c  c #FCB8B8",
"v  c #FC9C9C",
"b  c #FC7C7C",
"n  c #FC5C5C",
"m  c #FC4040",
"M  c #FC2020",
"N  c #FC0000",
"B  c #FCA85C",
"V  c #FC9840",
"C  c #FC8820",
"Z  c #FC7800",
"A  c #E46C00",
"S  c #CC6000",
"D  c #B45400",
"F  c #9C4C00",
"G  c #FCFCD8",
"H  c #FCFCB8",
"J  c #FCFC9C",
"K  c #FCFC7C",
"L  c #FCF85C",
"P  c #FCF440",
"I  c #FCF420",
"U  c #FCF400",
"Y  c #E4D800",
"T  c #CCC400",
"R  c #B4AC00",
"E  c #9C9C00",
"W  c #848400",
"Q  c #706C00",
"!  c #585400",
"~  c #404000",
"^  c #D0FC5C",
"/  c #C4FC40",
"(  c #B4FC20",
")  c #A0FC00",
"_  c #90E400",
"`  c #80CC00",
"'  c #74B400",
"]  c #609C00",
"[  c #D8FCD8",
"{  c #BCFCB8",
"}  c #9CFC9C",
"|  c #80FC7C",
" . c #60FC5C",
".. c #40FC40",
"X. c #20FC20",
"o. c #00FC00",
"O. c #00FC00",
"+. c #00EC00",
"@. c #00E000",
"#. c #00D400",
"$. c #04C800",
"%. c #04BC00",
"&. c #04B000",
"*. c #04A400",
"=. c #049800",
"-. c #048800",
";. c #047C00",
":. c #047000",
">. c #046400",
",. c #045800",
"<. c #044C00",
"1. c #044000",
"2. c #D8FCFC",
"3. c #B8FCFC",
"4. c #9CFCFC",
"5. c #7CFCF8",
"6. c #5CFCFC",
"7. c #40FCFC",
"8. c #20FCFC",
"9. c #00FCFC",
"0. c #00E4E4",
"q. c #00CCCC",
"w. c #00B4B4",
"e. c #009C9C",
"r. c #008484",
"t. c #007070",
"y. c #005858",
"u. c #004040",
"i. c #5CBCFC",
"p. c #40B0FC",
"a. c #20A8FC",
"s. c #009CFC",
"d. c #008CE4",
"f. c #007CCC",
"g. c #006CB4",
"h. c #005C9C",
"j. c #D8D8FC",
"k. c #B8BCFC",
"l. c #9C9CFC",
"z. c #7C80FC",
"x. c #5C60FC",
"c. c #4040FC",
"v. c #2024FC",
"b. c #0004FC",
"n. c #0000FC",
"m. c #0000EC",
"M. c #0000E0",
"N. c #0000D4",
"B. c #0000C8",
"V. c #0000BC",
"C. c #0000B0",
"Z. c #0000A4",
"A. c #000098",
"S. c #000088",
"D. c #00007C",
"F. c #000070",
"G. c #000064",
"H. c #000058",
"J. c #00004C",
"K. c #000040",
"L. c #282828",
"P. c #FCE034",
"I. c #FCD424",
"U. c #FCCC18",
"Y. c #FCC008",
"T. c #FCB400",
"R. c #003800",
"E. c #002800",
"W. c #9800E4",
"Q. c #8000CC",
"!. c #7400B4",
"~. c #60009C",
"^. c #500084",
"/. c #440070",
"(. c #340058",
"). c #280040",
"_. c #FCD8FC",
"`. c #FCB8FC",
"'. c #FC9CFC",
"]. c #FC7CFC",
"[. c #FC5CFC",
"{. c #FC40FC",
"}. c #FC20FC",
"|. c #FC00FC",
" X c #E000E4",
".X c #C800CC",
"XX c #B400B4",
"oX c #9C009C",
"OX c #840084",
"+X c #6C0070",
"@X c #580058",
"#X c #400040",
"$X c #FCE8DC",
"%X c #FCE0D0",
"&X c #FCD8C4",
"*X c #FCD4BC",
"=X c #FCCCB0",
"-X c #FCC4A4",
";X c #FCBC9C",
":X c #FCB890",
">X c #FCB080",
",X c #FCA470",
"<X c #FC9C60",
"1X c #F0945C",
"2X c #E88C58",
"3X c #DC8854",
"4X c #D08050",
"5X c #C87C4C",
"6X c #BC7848",
"7X c #B47044",
"8X c #A86840",
"9X c #A0643C",
"0X c #9C6038",
"qX c #905C34",
"wX c #885830",
"eX c #80502C",
"rX c #744C28",
"tX c #6C4824",
"yX c #5C4020",
"uX c #543C1C",
"iX c #483818",
"pX c #403018",
"aX c #382C14",
"sX c #28200C",
"dX c #600064",
"fX c #006464",
"gX c #006060",
"hX c #00001C",
"jX c #00002C",
"kX c #302410",
"lX c #480048",
"zX c #500050",
"xX c #000034",
"cX c gray11",
"vX c #4C4C4C",
"bX c gray36",
"nX c gray25",
"mX c gray19",
"MX c #343434",
"NX c #D8F4F4",
"BX c #B8E8E8",
"VX c #9CDCDC",
"CX c #74C8C8",
"ZX c #48C0C0",
"AX c #20B4B4",
"SX c #20B0B0",
"DX c #00A4A4",
"FX c #009898",
"GX c #008C8C",
"HX c #008484",
"JX c #007C7C",
"KX c #007878",
"LX c #007474",
"PX c #007070",
"IX c #006C6C",
"UX c #980088",
/* pixels */
"x.x.x.x.x.x.x.x.x.x.x.x.x.x.x.x.x.x.x.x.x.x.x.x.x.x.x.x.x.x.x.x.x.x.x.x.x.x.x.x.x.x.x.x.x.x.x.x.x.x.x.x.x.x.x.x.x.x.x.x.x.x.x.x.",
"A.c.c.c.c.c.c.c.c.c.c.c.c.c.c.c.c.c.c.c.c.c.c.c.c.c.c.c.c.c.c.c.c.c.c.c.c.c.c.c.c.c.c.c.c.c.c.c.c.c.c.c.c.c.c.c.c.c.c.c.c.c.c.x.",
"A.V.m.m.m.m.m.m.m.m.m.m.m.m.m.m.m.m.m.m.m.m.m.m.m.m.m.m.m.v.m.m.m.m.m.m.m.v.m.v.m.v.v.v.v.v.m.v.v.v.v.v.v.v.v.v.v.v.v.v.v.v.c.x.",
"A.V.m.7 5 m.m.m.m.m.m.m.m.m.m.m.m.7 5 m.m.m.m.m.m.m.m.m.m.m.m.7 5 m.v.m.m.m.m.m.v.m.v.m.v.6 4 v.v.v.v.m.v.v.v.v.v.v.v.6 4 v.c.x.",
"A.V.m.$ 7 m.m.m.m.m.m.m.m.m.m.m.m.$ 7 m.m.m.m.m.m.m.m.m.m.m.m.$ 7 m.m.m.m.m.m.v.m.v.m.v.v.8 6 v.m.v.v.v.v.v.v.v.v.v.v.8 6 v.c.x.",
"A.V.m.m.m.m.m.m.m.m.m.m.m.m.m.m.m.m.m.m.m.m.m.m.m.m.m.m.m.m.m.m.m.m.m.m.v.m.m.m.m.m.v.m.v.m.v.v.v.v.v.v.v.m.v.v.v.v.v.v.v.v.c.x.",
"A.V.m.m.m.m.V.V.V.V.V.V.V.V.V.V.V.V.V.V.V.V.V.V.V.V.V.V.V.V.V.V.V.V.V.V.V.V.V.V.V.V.V.V.V.V.V.V.V.V.V.V.V.V.V.V.V.V.v.v.v.v.c.x.",
"A.V.m.m.m.m.c.A.A.A.A.A.A.A.A.A.A.A.A.A.A.A.A.A.A.A.A.A.A.A.A.A.A.A.A.A.A.A.A.A.A.A.A.A.A.A.A.A.A.A.A.A.A.A.A.A.A.V.v.v.v.v.c.x.",
"A.V.m.m.m.m.c.x.uXuXuXuXuXuXuXuXuXuXuXuXuXuXuXuXuXtXuXyXyXyXyXyXyXyXyXyXyXyXyXyXyXyXyXyXyXyXyXyXyXyXyXyXyXyXyXyXA.V.v.v.v.v.c.x.",
"A.V.m.m.m.m.c.x.tXtXtXtXtXtXtXtXtXtXtXtXrXtXtXtXrXtXtXtXrXtXrXrXrXtXrXrXrXtXrXrXrXrXrXrXrXrXrXrXrXrXrXrXrXrXrXyXA.V.v.v.v.v.c.x.",
"A.V.m.m.m.m.c.x.tXtXtXtXtXtXtXtXtXtXtXtXtXtXtXtXtXtXtXrXtXrXrXrXrXrXrXrXrXrXrXrXrXrXrXrXrXrXrXrXrXrXrXrXrXrXrXyXA.V.m.v.v.v.c.x.",
"A.V.m.m.m.m.c.x.tXtXtXtXtXtXtXtXtXtXtXtXtXtXrXtXtXtXrXtXtXtXrXtXrXrXrXtXrXrXrXrXrXrXrXrXrXrXrXrXrXrXrXrXrXrXrXyXA.V.v.v.v.v.c.x.",
"A.V.m.m.m.m.c.x.tXtXtXtXuXuXuXuXuXuXuXuXuXuXuXuXuXuXuXuXuXuXtXrXrXrXuXuXuXuXuXuXuXuXuXuXuXuXuXuXuXuXuXuXrXrXrXyXA.V.v.v.m.v.c.x.",
"A.V.m.m.m.m.c.x.tXtXtXtXeXpXpXpXpXpXpXpXpXpXpXpXpXpXpXpXpXuXtXtXrXtXeXpXpXpXpXpXpXpXpXpXpXpXpXpXpXpXpXuXrXrXrXyXA.V.v.v.v.v.c.x.",
"A.V.m.m.m.m.c.x.tXtXtXtXeXqX6 5 7 6 5 7 7 5 6 7 6 5 5 6 pXuXtXrXtXrXeXqX6 6 5 7 7 6 7 5 6 7 7 6 6 5 pXuXrXrXrXyXA.V.v.v.v.v.c.x.",
"A.V.m.m.m.m.c.x.tXtXtXtXeXqX5 7 7 6 5 6 5 6 6 5 5 6 7 5 pXuXrXtXtXtXeXqX6 7 6 7 5 7 6 5 5 6 6 5 7 6 pXuXrXrXrXyXA.V.v.m.v.v.c.x.",
"A.V.m.m.m.m.c.x.tXtXtXtXeXqX6 6 p a s p a a 6 6 p a 7 6 pXuXtXtXtXtXeXqX5 6 s a 5 7 a a s a p a 7 6 pXuXrXrXrXyXA.V.v.v.v.v.c.x.",
"A.V.m.7 5 m.c.x.tXtXtXtXeXqX5 6 s a p s p s 7 6 a s 6 5 pXuXtXtXrXtXeXqX6 7 p p 6 6 p a p a s p 6 6 pXuXrXrXrXyXA.V.v.6 4 m.c.x.",
"A.V.m.$ 7 m.c.x.tXtXtXtXeXqX6 5 6 6 7 7 p a 5 5 s p 5 6 pXuXtXtXtXtXeXqX7 7 a s 7 7 a s 5 5 6 7 6 7 pXuXrXrXrXyXA.V.m.8 6 v.c.x.",
"A.V.m.m.m.m.c.x.tXtXtXtXeXqX6 7 5 5 6 6 s a 6 7 p p 6 7 pXuXtXtXtXtXeXqX6 5 a s 7 6 a s 6 7 6 7 6 5 pXuXrXrXrXyXA.V.v.v.v.v.c.x.",
"A.V.m.m.m.m.c.x.tXtXtXtXeXqX6 6 s a p a a a s s a a 7 7 pXuXtXtXtXtXeXqX7 5 p a p a p a p a a p 7 5 pXuXrXrXrXyXA.V.m.v.m.v.c.x.",
"A.V.m.m.m.m.c.x.tXtXtXtXeXqX5 6 a a s a p p a a p s 6 5 pXuXtXtXrXtXeXqX6 6 a s a s a p a s s a 6 6 pXuXrXrXrXyXA.V.v.m.v.v.c.x.",
"A.V.m.m.m.m.c.x.tXtXtXtXeXqX7 6 p s 5 6 s a 6 7 7 5 5 6 pXuXtXtXtXtXeXqX6 7 7 5 5 6 a s 7 6 s a 5 6 pXuXrXrXrXyXA.V.m.v.m.v.c.x.",
"A.V.m.m.m.m.c.x.tXtXtXtXeXqX5 5 a a 7 7 a p 6 6 7 6 7 7 pXuXtXtXtXtXeXqX6 6 6 6 5 6 p a 5 7 p p 6 7 pXuXrXrXrXyXA.V.m.m.v.m.c.x.",
"A.V.m.m.m.m.c.x.tXtXtXtXeXqX5 6 p p 6 5 p a s s a p 6 6 pXuXtXtXtXtXeXqX5 6 p s s a a a 5 6 s s 7 6 pXuXrXrXtXyXA.V.m.v.m.v.c.x.",
"A.V.N.m.m.m.c.x.tXtXtXtXeXqX6 6 s a 7 5 s a a p a a 7 5 pXuXtXtXtXtXeXqX5 6 p a a p a s 6 6 p a 6 6 pXuXrXrXrXyXA.V.m.m.m.m.c.x.",
"A.V.m.m.m.m.c.x.tXtXtXtXeXqX7 5 5 6 5 6 7 7 6 6 5 7 6 5 pXuXtXtXtXtXeXqX6 7 5 6 7 7 6 7 7 5 6 5 5 7 pXuXtXrXrXyXA.V.m.m.m.v.c.x.",
"A.V.m.m.N.m.c.x.tXtXtXtXeXqX6 6 5 7 7 5 6 7 6 7 6 5 6 7 pXuXtXtXtXtXeXqX6 7 6 6 5 6 5 6 7 6 6 7 5 6 pXuXrXrXrXyXA.V.v.m.m.m.c.x.",
"A.V.m.m.m.m.c.x.tXtXtXtXeXqXqXqXqXqXqXqXqXqXqXqXqXqXqXqXpXuXtXtXtXtXeXqXqXqXqXqXqXqXqXqXqXqXqXqXqXqXpXuXrXrXtXyXA.V.m.m.m.m.c.x.",
"A.V.m.m.m.m.c.x.tXtXtXtXeXeXeXeXeXeXeXeXeXeXeXeXeXeXeXeXeXuXtXtXtXtXeXeXeXeXeXeXeXeXeXeXeXeXeXeXeXeXeXuXrXrXrXyXA.V.m.m.v.m.c.x.",
"A.V.m.N.m.m.c.x.tXtXtXtXtXtXtXtXtXtXtXtXtXtXtXtXtXtXtXtXtXtXtXtXtXtXtXtXtXtXtXtXtXtXtXtXtXtXtXrXtXtXtXrXtXrXrXyXA.V.m.m.m.m.c.x.",
"A.V.m.7 5 m.c.x.yXtXtXtXtXtXtXtXtXtXtXtXtXtXtXtXtXtXtXtXtXtXtXtXtXtXtXtXtXtXtXtXtXtXtXtXtXtXtXtXtXtXtXtXrXrXrXyXA.V.m.7 5 m.c.x.",
"A.V.m.$ 7 N.c.x.tXtX4 4 4 4 4 4 4 4 4 4 4 4 4 tXtX4 4 4 4 4 4 4 4 4 4 4 4 4 4 4 4 4 4 4 4 4 4 4 4 4 4 4 4 4 tXyXA.V.m.$ 7 m.c.x.",
"A.V.N.m.m.m.c.x.yXiX8 6 6 6 5 # # # 5 6 6 6 4 tXuX8 6 6 6 5 6 6 6 5 6 6 6 5 6 5 6 5 5 5 5 5 5 5 5 5 5 5 5 4 rXyXA.V.m.m.m.m.c.x.",
"A.V.m.m.m.m.c.x.tXiX8 6 6 # # 1 1 1 # # 6 6 4 tXuX8 6 6 6 6 6 6 6 6 6 6 6 6 6 6 5 6 5 6 5 5 5 6 5 5 5 5 5 4 tXuXA.V.m.m.m.v.c.x.",
"A.V.N.m.N.m.c.x.yXiX8 6 5 # 1 1 1 1 1 # 5 6 4 tXuX8 6 6 8 8 8 8 8 8 8 8 8 8 8 8 8 8 8 8 8 8 8 8 8 8 8 5 5 4 tXuXA.V.m.m.m.m.c.x.",
"A.V.m.N.m.m.c.x.tXiX8 7 # 1 1 5 8 5 1 1 # 6 4 tXuX8 6 6 4 q 0 q 0 q 0 q 0 q 0 q 0 q 0 q 0 q 0 q 0 q 8 5 5 4 tXuXA.V.m.m.m.m.c.x.",
"A.V.N.m.N.m.c.x.yXiX8 7 # 1 1 8 w 8 1 1 # 6 4 tXuX8 6 7 4 0 q w q 0 q w q 0 q w q 0 q w q 0 q w q 0 8 5 5 4 rXuXA.V.m.m.m.m.c.x.",
"A.V.N.N.m.N.c.x.yXiX8 7 # 1 1 5 8 5 1 1 # 6 4 tXuX8 6 6 4 q 0 q 0 q 0 q 0 q 0 q 0 q 0 q 0 q 0 q 0 q 8 6 5 4 tXuXA.V.m.m.m.m.c.x.",
"A.V.N.m.N.m.c.x.yXiX8 7 5 # 1 1 1 1 1 # 5 6 4 uXuX8 6 6 4 w q 0 q w q 0 q w q 0 q w q 0 q w q 0 q w 8 5 5 4 tXuXA.V.m.m.m.m.c.x.",
"A.V.N.N.N.N.c.x.tXiX8 7 7 # # 1 1 1 # # 6 6 4 tXuX8 6 6 4 q 0 q 0 q 0 q 0 q 0 q 0 q 0 q 0 q 0 q 0 q 8 5 5 4 tXuXA.V.m.m.m.m.c.x.",
"A.V.N.N.N.m.c.x.yXiX8 6 7 7 4 1 1 1 4 6 6 6 4 tXuX8 6 7 4 0 q w q 0 q w q 0 q w q 0 q w q 0 q w q 0 8 5 5 4 tXuXA.V.m.m.m.m.c.x.",
"A.V.m.N.N.N.c.x.yXiX8 8 8 $ 6 # 1 # 6 8 8 8 4 tXuX8 6 6 4 q 0 q 0 q 0 q 0 q 0 q 0 q 0 q 0 q 0 q 0 q 8 6 5 4 tXuXA.V.m.m.m.m.c.x.",
"A.V.N.N.N.N.c.x.yXiXiXiXiXiX8 # 1 # 8 uXuXuXtXtXuX8 6 7 4 w q 0 q w q 0 q w q 0 q w q 0 q w q 0 q w 8 5 5 4 tXuXA.V.m.m.m.m.c.x.",
"A.V.N.N.m.N.c.x.yXyXyXyXiXiXiX5 1 5 yXyXtXyXtXuXuX8 7 6 4 q 0 q 0 q 0 q 0 q 0 q 0 q 0 q 0 q 0 q 0 q 8 6 5 4 tXuXA.V.m.m.m.m.c.x.",
"A.V.N.8 6 N.c.x.yXyXyXyXiXiXiX5 1 5 yXyXyXtXtXtXuX8 6 7 4 0 q w q 0 q w q 0 q w q 0 q w q 0 q w q 0 8 5 6 4 tXuXA.V.m.7 5 m.c.x.",
"A.V.N.0 8 N.c.x.yXyXyXyXyXiXiX6 1 6 yXyXyXyXtXyXuX8 7 7 4 q 0 q 0 q 0 q 0 q 0 q 0 q 0 q 0 q 0 q 0 q 8 6 5 4 tXuXA.V.m.$ 7 m.c.x.",
"A.V.N.m.N.N.c.x.yXyXyXyXyXiXiX6 2 6 yXtXyXtXyXtXuX8 6 7 4 w q 0 q w q 0 q w q 0 q w q 0 q w q 0 q w 8 6 6 4 tXuXA.V.m.m.m.m.c.x.",
"A.V.N.N.N.N.c.x.yXyXyXyXyXiXiX7 2 7 yXyXyXyXyXyXuX8 7 7 4 q 0 q 0 q 0 q 0 q 0 q 0 q 0 q 0 q 0 q 0 q 8 6 6 4 tXuXA.V.m.m.m.m.c.x.",
"A.V.N.N.N.m.c.x.yXyXyXyXyXiXiX7 2 7 yXyXyXtXyXyXuX8 7 7 4 0 q w q 0 q w q 0 q w q 0 q w q 0 q w q 0 8 5 6 4 tXuXA.V.m.m.m.m.c.x.",
"A.V.N.N.N.N.c.x.yXyXyXyXyXiXiX8 3 8 yXyXyXyXyXyXuX8 7 7 4 4 4 4 4 4 4 4 4 4 4 4 4 4 4 4 4 4 4 4 4 4 8 6 6 4 tXuXA.V.m.m.m.m.c.x.",
"A.V.N.N.N.N.c.x.yXyXyXyXyXiXiX8 3 8 yXtXyXyXyXtXuX8 6 7 7 7 6 7 6 7 6 6 6 6 6 6 6 6 6 6 6 5 6 6 6 5 6 6 6 4 tXuXA.V.m.m.m.m.c.x.",
"A.V.N.N.N.N.c.x.yXyXyXyXyXiXiX9 3 9 yXyXyXyXyXyXuX8 7 7 7 7 7 7 7 6 7 6 7 6 6 6 7 6 6 6 6 6 6 6 6 6 6 6 6 4 tXuXA.V.m.m.m.m.c.x.",
"A.V.N.N.N.N.c.x.yXyXyXyXyXiXiX9 6 9 yXyXyXyXyXyXuX8 8 8 8 8 8 8 8 8 8 8 8 8 8 8 8 8 8 8 8 8 8 8 8 8 8 8 8 4 tXuXA.V.m.m.m.m.c.x.",
"A.V.N.N.N.N.c.x.yXyXyXyXyXiXiXiXyXyXyXyXyXyXyXyXuXuXuXuXuXuXuXuXuXuXuXuXuXuXuXuXuXuXuXuXuXuXuXuXuXuXuXuXuXtXtXuXA.V.m.m.m.m.c.x.",
"A.V.N.N.N.N.c.x.yXyXyXyXyXiXiXiXyXyXyXyXyXyXyXtXyXyXyXtXyXyXyXtXyXtXtXtXuXtXtXtXtXtXtXtXtXtXtXtXtXtXtXtXtXtXtXuXA.V.m.m.m.m.c.x.",
"A.V.N.N.N.N.c.x.x.x.x.x.x.x.x.x.x.x.x.x.x.x.x.x.x.x.x.x.x.x.x.x.x.x.x.x.x.x.x.x.x.x.x.x.x.x.x.x.x.x.x.x.x.x.x.x.A.V.m.m.m.m.c.x.",
"A.V.N.N.N.N.c.c.c.c.c.c.c.c.c.c.c.c.c.c.c.c.c.c.c.c.c.c.c.c.c.c.c.c.c.c.c.c.c.c.c.c.c.c.c.c.c.c.c.c.c.c.c.c.c.c.c.V.m.m.m.m.c.x.",
"A.V.N.N.N.N.N.N.N.N.N.N.m.N.N.N.N.N.N.N.m.N.m.N.m.m.m.m.m.N.m.m.m.m.m.m.m.m.m.m.m.m.m.m.m.m.m.m.m.m.m.m.m.m.m.m.m.m.m.m.m.m.c.x.",
"A.V.N.8 6 N.N.N.N.N.N.N.N.N.N.N.N.8 6 N.N.N.N.m.N.m.N.m.m.m.m.7 5 m.N.m.m.m.m.m.m.m.m.m.m.7 5 m.m.m.m.m.m.m.m.m.m.m.m.7 5 m.c.x.",
"A.V.N.0 8 N.N.N.N.N.N.N.N.N.m.N.N.0 8 N.N.N.m.N.m.N.m.m.m.m.m.$ 7 m.m.m.m.m.m.m.m.m.m.m.m.$ 7 m.m.m.m.m.m.m.m.m.m.m.m.$ 7 m.c.x.",
"A.V.N.N.N.N.N.N.N.N.N.N.N.N.N.N.N.N.N.m.N.N.N.N.N.m.N.m.N.m.m.m.m.m.m.m.N.m.m.m.m.m.m.m.m.m.m.m.m.m.m.m.m.m.m.m.m.m.m.m.m.m.c.x.",
"A.V.V.V.V.V.V.V.V.V.V.V.V.V.V.V.V.V.V.V.V.V.V.V.V.V.V.V.V.V.V.V.V.V.V.V.V.V.V.V.V.V.V.V.V.V.V.V.V.V.V.V.V.V.V.V.V.V.V.V.V.V.c.x.",
"A.A.A.A.A.A.A.A.A.A.A.A.A.A.A.A.A.A.A.A.A.A.A.A.A.A.A.A.A.A.A.A.A.A.A.A.A.A.A.A.A.A.A.A.A.A.A.A.A.A.A.A.A.A.A.A.A.A.A.A.A.A.A.x."
};
