/* XPM */
static char *_486033772707[] = {
/* columns rows colors chars-per-pixel */
"64 64 256 2 ",
"   c black",
".  c #0000A8",
"X  c #00A800",
"o  c #00A8A8",
"O  c #A80000",
"+  c #A800A8",
"@  c #A85400",
"#  c gray66",
"$  c gray33",
"%  c #5454FC",
"&  c #54FC54",
"*  c #54FCFC",
"=  c #FC5454",
"-  c #FC54FC",
";  c #FCFC54",
":  c gray99",
">  c #ECECEC",
",  c gainsboro",
"<  c #D0D0D0",
"1  c #C0C0C0",
"2  c #B4B4B4",
"3  c gray66",
"4  c #989898",
"5  c gray55",
"6  c #7C7C7C",
"7  c gray44",
"8  c #646464",
"9  c gray33",
"0  c #484848",
"q  c gray22",
"w  c #2C2C2C",
"e  c #202020",
"r  c #FC0000",
"t  c #EC0000",
"y  c #E00000",
"u  c #D40000",
"i  c #C80000",
"p  c #BC0000",
"a  c #B00000",
"s  c #A40000",
"d  c #980000",
"f  c #880000",
"g  c #7C0000",
"h  c #700000",
"j  c #640000",
"k  c #580000",
"l  c #4C0000",
"z  c #400000",
"x  c #FCD8D8",
"c  c #FCB8B8",
"v  c #FC9C9C",
"b  c #FC7C7C",
"n  c #FC5C5C",
"m  c #FC4040",
"M  c #FC2020",
"N  c #FC0000",
"B  c #FCA85C",
"V  c #FC9840",
"C  c #FC8820",
"Z  c #FC7800",
"A  c #E46C00",
"S  c #CC6000",
"D  c #B45400",
"F  c #9C4C00",
"G  c #FCFCD8",
"H  c #FCFCB8",
"J  c #FCFC9C",
"K  c #FCFC7C",
"L  c #FCF85C",
"P  c #FCF440",
"I  c #FCF420",
"U  c #FCF400",
"Y  c #E4D800",
"T  c #CCC400",
"R  c #B4AC00",
"E  c #9C9C00",
"W  c #848400",
"Q  c #706C00",
"!  c #585400",
"~  c #404000",
"^  c #D0FC5C",
"/  c #C4FC40",
"(  c #B4FC20",
")  c #A0FC00",
"_  c #90E400",
"`  c #80CC00",
"'  c #74B400",
"]  c #609C00",
"[  c #D8FCD8",
"{  c #BCFCB8",
"}  c #9CFC9C",
"|  c #80FC7C",
" . c #60FC5C",
".. c #40FC40",
"X. c #20FC20",
"o. c #00FC00",
"O. c #00FC00",
"+. c #00EC00",
"@. c #00E000",
"#. c #00D400",
"$. c #04C800",
"%. c #04BC00",
"&. c #04B000",
"*. c #04A400",
"=. c #049800",
"-. c #048800",
";. c #047C00",
":. c #047000",
">. c #046400",
",. c #045800",
"<. c #044C00",
"1. c #044000",
"2. c #D8FCFC",
"3. c #B8FCFC",
"4. c #9CFCFC",
"5. c #7CFCF8",
"6. c #5CFCFC",
"7. c #40FCFC",
"8. c #20FCFC",
"9. c #00FCFC",
"0. c #00E4E4",
"q. c #00CCCC",
"w. c #00B4B4",
"e. c #009C9C",
"r. c #008484",
"t. c #007070",
"y. c #005858",
"u. c #004040",
"i. c #5CBCFC",
"p. c #40B0FC",
"a. c #20A8FC",
"s. c #009CFC",
"d. c #008CE4",
"f. c #007CCC",
"g. c #006CB4",
"h. c #005C9C",
"j. c #D8D8FC",
"k. c #B8BCFC",
"l. c #9C9CFC",
"z. c #7C80FC",
"x. c #5C60FC",
"c. c #4040FC",
"v. c #2024FC",
"b. c #0004FC",
"n. c #0000FC",
"m. c #0000EC",
"M. c #0000E0",
"N. c #0000D4",
"B. c #0000C8",
"V. c #0000BC",
"C. c #0000B0",
"Z. c #0000A4",
"A. c #000098",
"S. c #000088",
"D. c #00007C",
"F. c #000070",
"G. c #000064",
"H. c #000058",
"J. c #00004C",
"K. c #000040",
"L. c #282828",
"P. c #FCE034",
"I. c #FCD424",
"U. c #FCCC18",
"Y. c #FCC008",
"T. c #FCB400",
"R. c #003800",
"E. c #002800",
"W. c #9800E4",
"Q. c #8000CC",
"!. c #7400B4",
"~. c #60009C",
"^. c #500084",
"/. c #440070",
"(. c #340058",
"). c #280040",
"_. c #FCD8FC",
"`. c #FCB8FC",
"'. c #FC9CFC",
"]. c #FC7CFC",
"[. c #FC5CFC",
"{. c #FC40FC",
"}. c #FC20FC",
"|. c #FC00FC",
" X c #E000E4",
".X c #C800CC",
"XX c #B400B4",
"oX c #9C009C",
"OX c #840084",
"+X c #6C0070",
"@X c #580058",
"#X c #400040",
"$X c #FCE8DC",
"%X c #FCE0D0",
"&X c #FCD8C4",
"*X c #FCD4BC",
"=X c #FCCCB0",
"-X c #FCC4A4",
";X c #FCBC9C",
":X c #FCB890",
">X c #FCB080",
",X c #FCA470",
"<X c #FC9C60",
"1X c #F0945C",
"2X c #E88C58",
"3X c #DC8854",
"4X c #D08050",
"5X c #C87C4C",
"6X c #BC7848",
"7X c #B47044",
"8X c #A86840",
"9X c #A0643C",
"0X c #9C6038",
"qX c #905C34",
"wX c #885830",
"eX c #80502C",
"rX c #744C28",
"tX c #6C4824",
"yX c #5C4020",
"uX c #543C1C",
"iX c #483818",
"pX c #403018",
"aX c #382C14",
"sX c #28200C",
"dX c #600064",
"fX c #006464",
"gX c #006060",
"hX c #00001C",
"jX c #00002C",
"kX c #302410",
"lX c #480048",
"zX c #500050",
"xX c #000034",
"cX c gray11",
"vX c #4C4C4C",
"bX c gray36",
"nX c gray25",
"mX c gray19",
"MX c #343434",
"NX c #D8F4F4",
"BX c #B8E8E8",
"VX c #9CDCDC",
"CX c #74C8C8",
"ZX c #48C0C0",
"AX c #20B4B4",
"SX c #20B0B0",
"DX c #00A4A4",
"FX c #009898",
"GX c #008C8C",
"HX c #008484",
"JX c #007C7C",
"KX c #007878",
"LX c #007474",
"PX c #007070",
"IX c #006C6C",
"UX c #980088",
/* pixels */
"p p p p p p p p p p p p p p p q 0 p p p p p p p p p p p p p p p p p p p p p p p p p p p p p p q 9 p p p p p p p p p p p p p p p ",
"a a a a a a a a a a a a a a h 0 9 p a a a a a a a a a a a a a a a a a a a a a a a a a a a a h w 8 p a a a a a a a a a a a a a a ",
"s f s f s f f d f s f d f g h q 8 p a d s d f d f s s f f d f d f d s f f s d f s f f s s g h 0 0 p a f s s f s f s d f s d f s ",
"f s f d f d s s f f d s s g h q 0 p a f s f d s d f s f s s f s s f f d d f f d f d s f d g h 0 8 p a s f d s f s d s d f s f s ",
"f d f f s f d f s s d f d g h w 0 p a s f d f s f d f d s f s f d f s s f d s f s f s d f g h q 9 p a s f s f d s f f s d s s f ",
"s f s s f d s d s f s d f g h q 9 p a d f s d f d f s f d f s d f s f d f f s f d d f f s g h q 0 p a d s d s s d f s f s f d s ",
"f s f s d f s f d s f f s g h q 0 p a s d f f s f d s f f s f f d s d f s d f s s f s d f g h 0 8 p a f f s f d f d s f d s s f ",
"g g g g g g g g g g g g g g h w 9 p a g g g g g g g g g g g g g g g g g g g g g g g g g g g h w 0 p a g g g g g g g g g g g g g ",
"h h h h h h h h h h h h h h h w 8 p h h h h h h h h h h h h h h h h h h h h h h h h h h h h h q 8 p h h h h h h h h h h h h h h ",
"q 0 0 q q w q q 0 0 w q q 0 q q 8 9 q w q 0 0 q q 0 q 0 q w w q q w 0 q q w w q q 0 q q 0 q w q 9 9 q q w q 0 w w q 0 0 q q w q ",
"9 0 8 9 8 9 0 0 9 9 8 9 0 9 9 8 9 0 0 9 0 9 9 8 9 9 8 9 0 9 9 8 9 9 0 0 9 9 8 9 9 8 0 0 9 8 9 9 8 9 9 0 9 9 0 0 9 8 0 9 8 9 0 0 ",
"8 p p p p p p p p p p p p p p p p p p p p p p p p p p p p p p 9 8 p p p p p p p p p p p p p p p p p p p p p p p p p p p p p p 8 ",
"9 p a a a a a a a a a a a a a a a a a a a a a a a a a a a a h q 9 p a a a a a a a a a a a a a a a a a a a a a a a a a a a a h q ",
"0 p a d s f s s f s d s f s d f s d s f d s d f f s f s f g h 0 0 p a d s s f s s d f s f s d f s s f s d d f s s f d s d g h w ",
"0 p a s f d s f f s f d f d f s d f s s f d s s d s d f s g h w 0 p a s f d f d s f s d d f s d s d f d s f s d f s d s f g h w ",
"9 p a d d s f d s f s s d s d d f s d f s d d f d f s f d g h q 9 p a f s s s f d s f f s s f d f d s d s d d s d d d f s g h q ",
"8 p a s f f s s f d d f s f f s s d f s d s f s s d f d s g h q 9 p a d s f d s d s d s f d f s d s f d f f s f f s s d d g h 0 ",
"9 p a d s d s d f s f d s d s d f s f f s d f s f d s s f g h 0 0 p a s d f s d f s f s d s s f f s d s f s s d s d f d s g h q ",
"0 p a g g g g g g g g g g g g g g g g g g g g g g g g g g g h 0 9 p a g g g g g g g g g g g g g g g g g g g g g g g g g g g h q ",
"0 p h h h h h h h h h h h h h h h h h h h h h h h h h h h h h w 8 p h h h h h h h h h h h h h h h h h h h h h h h h h h h h h w ",
"9 9 q 0 w 0 q q q 0 w q q w q 0 0 q q 0 q q 0 0 q w w q q w 0 q 8 9 q 0 w q 0 q q w w q q 0 q w q q 0 0 q q w q q 0 0 q q 0 q q ",
"0 8 9 9 0 9 0 8 9 9 8 0 0 9 8 0 8 0 0 9 9 0 8 9 9 8 8 9 9 0 0 9 9 8 9 0 0 9 0 8 9 8 0 9 0 9 8 8 9 0 0 9 8 9 9 8 8 9 0 0 9 0 8 9 ",
"p p p p p p p p p p p p p p p 8 9 p p p p p p p p p p p p p p p p p p p p p p p p p p p p p p 8 9 p p p p p p p p p p p p p p p ",
"a a a a a a a a a a a a a a h q 2 2 2 2 2 2 2 2 2 2 2 2 2 2 2 2 2 2 2 2 2 2 2 2 2 2 2 2 2 2 2 4 8 p a a a a a a a a a a a a a a ",
"s s f s d s f s f d s f d g h w 2 2 2 2 2 2 2 2 2 2 2 2 2 2 2 2 2 2 2 2 2 2 2 2 2 2 2 2 2 2 4 6 q p a f s f d s d f s d s f s d ",
"f d s d s f s s f s f s s g h q 2 2 4 4 4 4 4 4 4 4 4 4 4 4 4 4 4 4 4 4 4 4 4 4 4 4 4 4 4 4 6 6 q p a f s s f s f s f s f d s f ",
"d s f f d s d f s f s d f g h q 2 2 4 n.4 4 n.4 4 4 4 4 4 4 4 4 4 4 4 4 4 4 4 4 4 4 4 4 n.4 6 6 w p a s f f s d s s f d s f f s ",
"s d s s s f s d s d f f d g h q 2 2 4 n.4 4 n.4 4 4 4 4 4 4 4 4 4 4 4 4 4 4 4 4 4 4 4 4 n.4 6 6 q p a d s f d s f d s s f s s d ",
"f s d f s f d s f s s d s g h 0 2 2 4 n.4 4 n.4 4 n.4 4 n.4 4 n.n.n.4 n.n.n.4 n.4 4 n.4 n.4 6 6 0 p a f f s s f s f f s d f d s ",
"g g g g g g g g g g g g g g h q 2 2 4 n.n.n.n.4 n.4 n.4 n.4 4 4 n.4 4 n.4 4 4 n.n.4 n.4 n.4 6 6 q p a g g g g g g g g g g g g g ",
"h h h h h h h h h h h h h h h w 2 2 4 n.4 4 n.4 n.n.n.4 n.4 4 4 n.4 4 n.n.4 4 n.4 n.n.4 n.4 6 6 q p h h h h h h h h h h h h h h ",
"0 q q 0 q q w w q q w q q 0 0 q 2 2 4 n.4 4 n.4 n.4 n.4 n.4 4 4 n.4 4 n.4 4 4 n.4 4 n.4 4 4 6 6 w 9 q 0 0 q w 0 q w q q w w 0 q ",
"9 8 9 0 0 9 8 9 8 0 0 9 8 9 0 9 2 2 4 n.4 4 n.4 n.4 n.4 n.n.n.4 n.4 4 n.n.n.4 n.4 4 n.4 n.4 6 6 q 9 8 9 8 0 9 8 8 9 0 9 0 9 8 9 ",
"8 p p p p p p p p p p p p p p p 2 2 4 4 4 4 4 4 4 4 4 4 4 4 4 4 4 4 4 4 4 4 4 4 4 4 4 4 4 4 6 6 s p p p p p p p p p p p p p p 8 ",
"9 p a a a a a a a a a a a a a a 2 2 4 n.n.n.n.4 n.4 n.n.4 n.n.4 n.n.n.n.4 n.n.n.4 n.4 n.n.4 6 6 d a a a a a a a a a a a a a h q ",
"0 p a s f d s f d s d f s d f d 2 2 4 4 4 4 4 4 4 4 4 4 4 4 4 4 4 4 4 4 4 4 4 4 4 4 4 4 4 4 6 6 h s d d f d f s d s d f s g h q ",
"0 p a f s f d s s f s d s s f s 2 2 4 n.4 n.n.n.4 n.n.4 n.4 n.n.n.4 n.4 4 4 4 4 4 4 4 4 4 4 6 6 f s s d s d s f f s d s f g h w ",
"9 p a d s d s f d s d s d f d d 2 2 4 4 4 4 4 4 4 4 4 4 4 4 4 4 4 4 4 4 4 4 4 4 4 4 4 4 4 4 6 6 h d f f s f d d s d f d d g h w ",
"8 p a s f f d s f s f f d s s f 2 4 6 6 6 6 6 6 6 6 6 6 6 6 6 6 6 6 6 6 6 6 6 6 6 6 6 6 6 6 6 6 g d s s d f s f d s f s s g h q ",
"9 p a f s d s d f d s d s d f d 4 6 6 6 6 6 6 6 6 6 6 6 6 6 6 6 6 6 6 6 6 6 6 6 6 6 6 6 6 6 6 6 g f d d s s s d s d d s f g h q ",
"0 p a g g g g g g g g g g g g g g j j j j j j j j j j j j j k w q s d j j j j j j j j j j j j j j g g g g g g g g g g g g g h 0 ",
"9 p h h h h h h h h h h h h h h h h h h h h h h h h h h h h h 0 0 p h h h h h h h h h h h h h h h h h h h h h h h h h h h h h q ",
"8 8 q w q 0 0 q q w q q 0 0 q q 0 q w 0 0 w q q w q 0 w q w q q 9 9 q 0 0 q w q q 0 0 w q 0 q q w w q w q 0 0 q q 0 q w w q 0 0 ",
"8 9 0 9 8 8 9 9 0 9 0 9 8 9 0 8 8 9 0 0 9 8 0 9 8 9 8 9 0 0 9 8 9 8 8 9 0 9 8 0 9 8 8 9 0 9 0 9 8 0 0 9 9 8 9 9 0 9 8 8 9 0 9 0 ",
"p p p p p p p p p p p p p p p 9 8 p p p p p p p p p p p p p p p p p p p p p p p p p p p p p p 9 8 p p p p p p p p p p p p p p p ",
"a a a a a a a a a a a a a a h q 9 p a a a a a a a a a a a a a a a a a a a a a a a a a a a a h q 9 p a a a a a a a a a a a a a a ",
"f d s f d d s f s s f s d g h w 0 p a f s f s d s f s d s f f s f d s d f s d s f s d s d g h 0 8 p a f s f d s f f s f d s d f ",
"f s f d s f d f f s d s s g h w 9 p a s d s f s f s f f d s d f s f s f s f s d s f s f s g h w 9 p a d f s s f d s d f s f s s ",
"d s f s f d s s d f s f d g h q 0 p a d f s d s d f s f s f s f d s d s d f s f f s s f d g h q 9 p a s d f d s f d f s d s d f ",
"s d s d d s d f s s d s s g h q 9 p a s f d s f s s d s d f s s f s d f s s d s s f d s s g h w 0 p a f s f s s d s d s f f s d ",
"d s f s f f s f d f f d f g h 0 8 p a d s s f s f d s f s s f d s f s s f f s f d s f f s g h q 0 p a d f s d f s f f d s d f s ",
"g g g g g g g g g g g g g g h q 8 p a g g g g g g g g g g g g g g g g g g g g g g g g g g g h 0 9 p a g g g g g g g g g g g g g ",
"h h h h h h h h h h h h h h h 0 9 p h h h h h h h h h h h h h h h h h h h h h h h h h h h h h q 8 p h h h h h h h h h h h h h h ",
"0 q q 0 q q w w 0 q q 0 0 q q w 0 0 q q 0 0 q q w w q 0 q q 0 0 q w q q 0 q q 0 w 0 0 q 0 q q q 9 9 q q 0 0 q q 0 q q q w q w q ",
"9 8 8 9 0 0 9 8 8 9 0 9 8 8 9 8 9 0 9 8 9 8 9 0 0 9 8 8 9 0 9 8 9 0 0 9 8 9 8 9 0 9 8 8 9 9 0 0 9 8 9 9 8 0 9 8 8 9 9 0 0 9 8 9 ",
"0 p p p p p p p p p p p p p p p p p p p p p p p p p p p p p p 9 9 p p p p p p p p p p p p p p p p p p p p p p p p p p p p p p 9 ",
"9 p a a a a a a a a a a a a a a a a a a a a a a a a a a a a h q 0 p a a a a a a a a a a a a a a a a a a a a a a a a a a a a h q ",
"8 p a f s f s d s d f d d s f f s f s s s f d s f d d s f g h w 9 p a d s f d s f s f d s d s f s s s f s d f s d s d f s g h q ",
"8 p a s s f d f s s d s f d s d s d f s f s f d s f s f s g h 0 8 p a s f d s f d d s f s f d s f f d s f s f s s f s s f g h 0 ",
"9 p a d s d s d d f f s s d f d f s d d f s d s d f s d f g h q 8 p a d f s d d s f d d s f s d d s d f d s d d f d f s d g h q ",
"0 p a s f s f d s d s d f d s d s f f s d f s f d s d f s g h q 9 p a s d s f f s d d s f d s f s f s s s f f s s s f f s g h q ",
"0 p a f d s d s d f s f s s d f s f s s f s f s s f d s d g h q 0 p a s d f s d d s f d d s f f s f d s f d s d f d s d s g h w ",
"9 p a g g g g g g g g g g g g g g g g g g g g g g g g g g g h w 0 p a g g g g g g g g g g g g g g g g g g g g g g g g g g g h 0 ",
"8 p h h h h h h h h h h h h h h h h h h h h h h h h h h h h h w 9 p h h h h h h h h h h h h h h h h h h h h h h h h h h h h h q "
};
