/* XPM */
static char *_486033912747[] = {
/* columns rows colors chars-per-pixel */
"64 64 256 2 ",
"   c black",
".  c #0000A8",
"X  c #00A800",
"o  c #00A8A8",
"O  c #A80000",
"+  c #A800A8",
"@  c #A85400",
"#  c gray66",
"$  c gray33",
"%  c #5454FC",
"&  c #54FC54",
"*  c #54FCFC",
"=  c #FC5454",
"-  c #FC54FC",
";  c #FCFC54",
":  c gray99",
">  c #ECECEC",
",  c gainsboro",
"<  c #D0D0D0",
"1  c #C0C0C0",
"2  c #B4B4B4",
"3  c gray66",
"4  c #989898",
"5  c gray55",
"6  c #7C7C7C",
"7  c gray44",
"8  c #646464",
"9  c gray33",
"0  c #484848",
"q  c gray22",
"w  c #2C2C2C",
"e  c #202020",
"r  c #FC0000",
"t  c #EC0000",
"y  c #E00000",
"u  c #D40000",
"i  c #C80000",
"p  c #BC0000",
"a  c #B00000",
"s  c #A40000",
"d  c #980000",
"f  c #880000",
"g  c #7C0000",
"h  c #700000",
"j  c #640000",
"k  c #580000",
"l  c #4C0000",
"z  c #400000",
"x  c #FCD8D8",
"c  c #FCB8B8",
"v  c #FC9C9C",
"b  c #FC7C7C",
"n  c #FC5C5C",
"m  c #FC4040",
"M  c #FC2020",
"N  c #FC0000",
"B  c #FCA85C",
"V  c #FC9840",
"C  c #FC8820",
"Z  c #FC7800",
"A  c #E46C00",
"S  c #CC6000",
"D  c #B45400",
"F  c #9C4C00",
"G  c #FCFCD8",
"H  c #FCFCB8",
"J  c #FCFC9C",
"K  c #FCFC7C",
"L  c #FCF85C",
"P  c #FCF440",
"I  c #FCF420",
"U  c #FCF400",
"Y  c #E4D800",
"T  c #CCC400",
"R  c #B4AC00",
"E  c #9C9C00",
"W  c #848400",
"Q  c #706C00",
"!  c #585400",
"~  c #404000",
"^  c #D0FC5C",
"/  c #C4FC40",
"(  c #B4FC20",
")  c #A0FC00",
"_  c #90E400",
"`  c #80CC00",
"'  c #74B400",
"]  c #609C00",
"[  c #D8FCD8",
"{  c #BCFCB8",
"}  c #9CFC9C",
"|  c #80FC7C",
" . c #60FC5C",
".. c #40FC40",
"X. c #20FC20",
"o. c #00FC00",
"O. c #00FC00",
"+. c #00EC00",
"@. c #00E000",
"#. c #00D400",
"$. c #04C800",
"%. c #04BC00",
"&. c #04B000",
"*. c #04A400",
"=. c #049800",
"-. c #048800",
";. c #047C00",
":. c #047000",
">. c #046400",
",. c #045800",
"<. c #044C00",
"1. c #044000",
"2. c #D8FCFC",
"3. c #B8FCFC",
"4. c #9CFCFC",
"5. c #7CFCF8",
"6. c #5CFCFC",
"7. c #40FCFC",
"8. c #20FCFC",
"9. c #00FCFC",
"0. c #00E4E4",
"q. c #00CCCC",
"w. c #00B4B4",
"e. c #009C9C",
"r. c #008484",
"t. c #007070",
"y. c #005858",
"u. c #004040",
"i. c #5CBCFC",
"p. c #40B0FC",
"a. c #20A8FC",
"s. c #009CFC",
"d. c #008CE4",
"f. c #007CCC",
"g. c #006CB4",
"h. c #005C9C",
"j. c #D8D8FC",
"k. c #B8BCFC",
"l. c #9C9CFC",
"z. c #7C80FC",
"x. c #5C60FC",
"c. c #4040FC",
"v. c #2024FC",
"b. c #0004FC",
"n. c #0000FC",
"m. c #0000EC",
"M. c #0000E0",
"N. c #0000D4",
"B. c #0000C8",
"V. c #0000BC",
"C. c #0000B0",
"Z. c #0000A4",
"A. c #000098",
"S. c #000088",
"D. c #00007C",
"F. c #000070",
"G. c #000064",
"H. c #000058",
"J. c #00004C",
"K. c #000040",
"L. c #282828",
"P. c #FCE034",
"I. c #FCD424",
"U. c #FCCC18",
"Y. c #FCC008",
"T. c #FCB400",
"R. c #003800",
"E. c #002800",
"W. c #9800E4",
"Q. c #8000CC",
"!. c #7400B4",
"~. c #60009C",
"^. c #500084",
"/. c #440070",
"(. c #340058",
"). c #280040",
"_. c #FCD8FC",
"`. c #FCB8FC",
"'. c #FC9CFC",
"]. c #FC7CFC",
"[. c #FC5CFC",
"{. c #FC40FC",
"}. c #FC20FC",
"|. c #FC00FC",
" X c #E000E4",
".X c #C800CC",
"XX c #B400B4",
"oX c #9C009C",
"OX c #840084",
"+X c #6C0070",
"@X c #580058",
"#X c #400040",
"$X c #FCE8DC",
"%X c #FCE0D0",
"&X c #FCD8C4",
"*X c #FCD4BC",
"=X c #FCCCB0",
"-X c #FCC4A4",
";X c #FCBC9C",
":X c #FCB890",
">X c #FCB080",
",X c #FCA470",
"<X c #FC9C60",
"1X c #F0945C",
"2X c #E88C58",
"3X c #DC8854",
"4X c #D08050",
"5X c #C87C4C",
"6X c #BC7848",
"7X c #B47044",
"8X c #A86840",
"9X c #A0643C",
"0X c #9C6038",
"qX c #905C34",
"wX c #885830",
"eX c #80502C",
"rX c #744C28",
"tX c #6C4824",
"yX c #5C4020",
"uX c #543C1C",
"iX c #483818",
"pX c #403018",
"aX c #382C14",
"sX c #28200C",
"dX c #600064",
"fX c #006464",
"gX c #006060",
"hX c #00001C",
"jX c #00002C",
"kX c #302410",
"lX c #480048",
"zX c #500050",
"xX c #000034",
"cX c gray11",
"vX c #4C4C4C",
"bX c gray36",
"nX c gray25",
"mX c gray19",
"MX c #343434",
"NX c #D8F4F4",
"BX c #B8E8E8",
"VX c #9CDCDC",
"CX c #74C8C8",
"ZX c #48C0C0",
"AX c #20B4B4",
"SX c #20B0B0",
"DX c #00A4A4",
"FX c #009898",
"GX c #008C8C",
"HX c #008484",
"JX c #007C7C",
"KX c #007878",
"LX c #007474",
"PX c #007070",
"IX c #006C6C",
"UX c #980088",
/* pixels */
"                                                                                                                                ",
"qXqXqXqXqXqXqXqXqXqXqXqXqXqXqXqXqXqXqXqXqXqXqXqXqXqXqXqXqXqXqXqXqXqXqXqXqXqXqXqXqXqXqXqXqXqXqXqXqXqXqXqXqXqXqXqXqXqXqXqXqXqXqXqX",
"qXtXtXpXpXpXtXtXpXpXtXtXtXtXpXtXpXpXpXpXtXtXtXtXpXpXtXtXpXtXpXtXpXpXtXpXtXpXpXtXpXpXtXtXtXtXpXpXtXtXpXtXtXpXpXtXtXpXpXtXtXpXpXkX",
"qXuX4 uXuXeXuXuXuXuXeXuXeXeXuXuXuXuXuXuXuXuXeXuXuXeXuXuXeXuXeXeXuXeXuXeXeXeXuXuXeXuXuXuXuXeXeXeXeXeXuXuXuXuXeXuXeXeXeXeXuX4 eXkX",
"qXtXtXtXtXtXpXtXtXpXpXpXtXtXpXtXpXpXpXtXpXpXtXpXtXtXpXtXtXpXpXtXtXtXpXtXpXtXpXtXtXpXtXpXtXtXpXpXtXtXpXpXpXpXtXpXtXpXpXtXpXpXpXkX",
"qXuXeXuXeXuXuXuXuXeXeXeXeXeXeXuXuXeXeXuXuXeXuXuXuXeXeXuXuXuXuXuXeXuXuXeXeXuXuXuXeXeXeXuXuXeXeXeXuXuXeXeXuXuXeXuXeXuXuXeXuXuXuXkX",
"qXpXtXpXtXtXpXpXtXtXpXtXpXtXtXtXpXtXtXpXtXpXpXtXtXtXpXpXtXpXtXtXpXtXpXtXtXpXpXtXpXpXpXpXpXtXpXpXtXpXpXpXtXtXtXpXtXpXpXpXtXpXpXkX",
"qXuXuXeXeXeXeXw w w mXmXmXMXnX0 0 $ 0 0 $ $ $ $ $ $ $ $ nXnXMX0 7 6 # 6X7X6X3XL.mX1 1 2 6 =X*X7X0XmXmXmXmXmXmXw 6 uXeXuXeXuXeXkX",
"qXpXpXtXpXpXpXmXmXbX8 6 $ 6 8 5 7 5 5 5 7 $ $ $ $ $ $ 0 $ 5 5 4X4X4X3X1X3X3X1XL.bX1 6 nX8 # *X4 7XmXMXMXnXmXmXw 5 pXpXpXtXpXtXkX",
"qXeXeXuXuXuXuXmXMXbX8 8 6 6 6 7 8 5 5 6 7 0 $ 0 8 $ 6 3X3X3X4X1XB B 1X1XB 2X7XL.2 , nXmX0 rX1 0 rXmXnX0 nXMXmXmX5 eXuXuXuXeXuXkX",
"qXpXpXtXtXtXpXmXw MX0 0 $ $ $ $ $ 0 bX5 5 3X3X3X1X1XB B B B B 1X1X<XB 1X1X3XyX2 $X$X1 , $X=XL.L.0XeXMX0 $ MXMXmX7 pXpXpXpXpXpXkX",
"qXuXuXeXeXeXeXMXmXMX$ $ 0 0 0 $ 5 >X3X7X3X3XB B B <XB B 1X1X1X1X1XB 2X1X2X7Xw $X$XG $X$X&X$ pX7X3X7XMX$ 0 nXMXmX6 eXuXeXuXuXeXkX",
"qXtX4 tXpXpXtXmXMXnX0 $ 7 5 # >X4X3X3X1X1XB B B B <X<X1X<XB <X1X1X1X1X2X2X8 pX$XG $X$X, $ mX4X3X3X6XeX0 $ 0 MXmX7 pXpXtXpX4 tXkX",
"qXeXeXuXuXuXeXMX0 8 # 4X5 6 0X3X3XB 1X1X1XB B 1X<XB <X<X1X<X1X1X1X1X1X2X3XiX8 > $XG , bXmXyX2X1X3X7X6XnX$ $ 0 mX5 eXeXuXuXuXuXkX",
"qXkXkXkXkXkXkX2 -X=X&X%X=X2 mXL.MX3XB 1X<X1XB B 1X1X1X1X1X1X1X2X2X1X2X3XeX$ %XG $X$XL.rX3X1X1X1X3X3X7X6XyX8 $ mX6 kXkXkXkXkXkXkX",
"              *X&X&X# bX$ 5 < 8 iXyX7X1X1X1X<X1X1X1X1X1X1X1X1X1X2X2X1X3XuX4 $X: G 7 8 3X1X1X3X3X2X3X8X4XrX8 8 nX7               ",
"              2 , &X8 nX$ $ G $X1 L.mXrX3X1X1X1X1X1X1X2X3X1X1X1X2X1X3X0X0 $X: G 6 mX3X2X3X3X3X3X3X4X4X0X7X7 8 0 6               ",
"qXqXqXqXqXqXqX7 *X%X5 5 2 %X$X, $X$X$X1 bX0 7X2X1X2X1X3X1X1X>X# # 5 5 4 # 1 < MX7X1X3X3X4X4X>X:X:X2 2 3X6X8 7 8 5 qXqXqXqXqXqXqX",
"pXtXpXtXpXtXpX4X7 8 < , G G G G $X$X$X$X$XbXMXrX1X2X3X4X3X>X*X&X< -X# 1 # 5 2 4X1X1X3X>X# # 0 0 nXmXmXnX0 bX7 $ 6 pXpXpXtXtXpXtX",
"uXeXeXeXuXuXuX6 bXmXmXnX8 5 , : G G G G G , 1 bX8 4X7X3X;X=X&X&X&X*X&X1 4 5 5 5 # =X2 $ MXnXMXmXmXL.L.L.L.L.L.aX6 eXeXuXeXuXuXuX",
"pXpXpXtXpXtXpX8 5 7XrXrXmXmXmX0 5 1 G G G $XG $X8 5 4X2 2 =X&X&X&X$X=X5 4X4 # # -X, mXnXMXMXmXmXw w L.w L.L.L.aX7 pXtXpXpXpXpXtX",
"eXeXeXuXeXuXeXMX5 5 B 2XB 1X2X1X1X4X7X8 rXiX0 6 # 5 2 ;X-X1 -X*X;X4X4X3X3X# 2 %X4 MXnXnXMXmXmXw mXw L.L.L.L.L.L.5 uXuXeXuXuXeXuX",
"pXpXtXtXpXpXpXnX6 2 1XB 2X1X1X1X1X2X1X1X2X3X4X7X4 5 2 # 5 7X6 2 >X# 4X2 -X*X&X, nXnXnXMXMXmXw mXw L.L.L.L.L.L.w 5 tXpXpXpXtXpXtX",
"uXuXeXuXeXuXeXnX0 4 1X1X1X1X1X1X1X2X1X,X3X>X4X7 2 2 2 # 5 5 :X>X# 2 2 2 =X*X&X5 nX0 MXMXMXMXw mXw w L.L.L.L.L.L.5 uXeXeXeXeXuXuX",
"pXpXpXpXpXpXtXnX$ 0 # B B B 1XB B 1X,X:X-X=X*X-X2 2 # 1 2 2 4X3X# 1 *X%X%X$X$X0 0 0 nXMXMXmXw w mXL.L.L.L.L.L.sX7 tXpXpXpXtXpXpX",
"uXeXeXuXeXeXuXnXbX$ >X3XB B B B <X1X1X1X1X1X1X1X2 -X< =X2 4X7 -X1 =X&X&X$X$X5 0 0 $ MXMXMXmXmXmXmXw L.L.w L.L.aX7 eXuXuXuXuXuXeX",
"tXtXtXtXtXpXtX0 8 $ 2 >XB B B B B <X1X1X1X1X3X3X# 2 1 1 ;X:X4X< 2 1 1 , 2 $ MX0 0 0 MXMXMXMXmXmXmXw w w w L.MXiX6 tXpXpXpXpXtXpX",
"eXuXuXuXeXuXeX0 8 7 4 >X3XB B B B 1X<X1X1X1X1X:X# 5 -X1 %X< < yXyX0 0 bXrX$ 8 0 0 0 MXmXmXmXmXmXmXw w L.w L.L.pX5 uXeXeXeXeXuXeX",
"tXpXpXpXtXtXpX$ 7 6 bX5 :X1XB B B 1X1X1X1X1X1X,X3X:X# # 1 2 2 %X=X5 $ 0 0 0 yXyXyXuX0 bX8 $ mXmXmXL.w w w L.w iX5 pXpXtXtXpXpXpX",
"uXeXeXuXeXuXeX$ 7 6 8 bX:X:XB B B 1X1X1X1X1X1X2X:X;X2 # # 2 # 1 1 =X*XrX$ rX0 eXrXnXrXyXyX0 $ uXyXmXmXw mXL.L.pX6 eXuXeXuXeXuXuX",
"kXkXkXkXkXkXkX0 7 6 7 $ 4 >XB B B 1X1X1X1X1X1X2X2X7 1 1 2 # 6 1X>X4X3X=X4 bXrX3XqXyXbXrXrXuX7 0 yXMXmXmXmXmXw iX7 kXkXkXkXkXkXkX",
"              $ 7 6 7 $ 5 2 B B B B B 1X1X2X2X3XrX0 1 %X< 6 4X>X3X,X3X3X:X-X7 3XeXrX8X6XqXyXnX6 uX0 mXmXw w iXiX6               ",
"              8 7 6 5 8 0 7 ,XB B B B B B 1X7X0 < %X$X$X$ eX1X1X1X1X2X2X;X=X>X0X6X3X:X,X3X6XeXrXyXbXyXmXmXL.aXpX5               ",
"qXqXqXqXqXqXqX8 6 6 5 7 $ 8 >XB B B B B B 0X0 8 > $X$X$XMX6X1X1X1X2X3X-X*X# 0X8X6X,X>X4X6X8XeXrX0 mXyX$ MXpXw L.6 qXqXqXqXqXqXqX",
"qXpXtXtXtXpXpX8 7 5 5 6 8 $ >X3XB B B B 1XMX8 , $X> G $XyX1X1X1X2X1X2X< -X8X0X8X8X3X3X6X8X0X$ tXyXuXnXmXmXmX0 $ 5 tXpXtXtXtXpXkX",
"qXuX4 eXuXuXuXbX7 5 4 5 7 $ 2 ;X,XB 7X0 mX$X> > : : > 8 4XB B B 1X1X2X3X3X>X$X7XqX8X>X6X8X8XeXrXrXyX0 yXL.nXyXyX5 uXeXeXuX4 uXkX",
"qXtXpXtXtXpXtXbX7 5 4 5 6 8 5 *X4X7 MXMX7 > : : : > # 0 ,XB B B B 1X1X3X1X3X%XqX8X7 3X3X7X0XrXrXrXyXbXmXL.yXrXtX7 pXtXpXtXpXpXkX",
"qXeXeXeXeXeXeX$ 7 5 4 5 6 8 $ 1 # mXMX8 $X: , , : > 8 nXB B B B B B 1X2X1X3X%X>X7X8X7X3X8X0XrX$ rXyX7 mXmXrXrXeX6 eXuXuXeXeXuXkX",
"qXpXpXpXtXpXtX$ 7 5 4 4 7 7 0 5 :XmX8 $X2 7 7 # > 2 nXnXB B B B B B B 2X3X3X-XqX8X7X4X3X8XqXrXrX0 0 MXMX$ rXqXeX7 tXtXtXtXpXtXkX",
"qXuXuXuXeXuXuX$ 7 6 4 # 2 $X$X, , , , 1 1 8 $ # 2 mXMX7 B B B ,X>X3X;X1 2 # < >X4X6X8X8XqXeX0 yX0 L.L.8 8 rXeXtX6 eXuXuXeXeXuXkX",
"qXtXtXpXpXtXtXbX7 6 < 4 5 5 < , G $X1 G > 2 < G 0 nXmX4X1X3X3X*X2 # # 8 7 7 1 4X6X0X0XqXeXrXyX0 mXL.0 7XeXrXrXtX5 tXpXpXpXtXpXkX",
"qXuXeXuXeXuXuX$ 7 1 $X< 5 6 $ $ bX2 < $X: G : G $ 7 5 3X=X# 4 6 bX8 8 8 7 6 4 6X8X0XrX0 rX0 0 mXL.0 8 rXrXrXrXtX5 uXeXeXeXeXeXkX",
"qXpXpXtXpXtXpXbX2 1 , %X, 5 7 8 bX# # 1 :X1 =X4 8 $ $ $ 8 7 7 6 7 7 7 7 6 6 5 5 4 4 4 # 4 6 bXMXmXnXyXrXrXeXqXtX7 tXtXpXpXtXtXkX",
"qXeXeXuXeXeXuX$ bX< # %X, 1 7 7 bX6 1 < 2 7 $ 7 < , # 6 7 7 7 7 7 7 7 7 7 7 7 6 5 4 5 2 < < # < 2 yXnX0 rXeX0XrX6 eXuXuXeXeXeXkX",
"qXtX4 tXtXpXpX$ $ 6 5 2 %X&X7 7 8 $ bX0 0 7 , , 5 2 , 2 7 7 7 7 7 7 7 6 7 7 6 6 5 5 %X, # 2 2 6 5 MXnXyXrXeX8X0 5 pXpXtXtX4 pXkX",
"qXuXuXuXeXuXuX$ 0 bX, 5 , $X6 7 8 bX$ 8 8 5 $X, # , 4 $ 7 6 6 7 6 6 6 6 6 7 7 6 7 5 , %XbX6 2 mXmXw nXnX0 eX0XyX5 eXuXuXeXuXeXkX",
"qXkXkXkXkXkXkX$ nX0 6 < 5 &X7 7 7 bX7 8 8 5 &X&X1 $X# 8 7 5 5 6 7 8 $ $ nXnXmXL.L.L., %X$ 6 2 rX4XmXw MXiXrXqXtX6 kXkXkXkXkXkXkX",
"              0 nX0 8 1 5 &X7 7 2 # 7 # 1 2 %X, &X%X=X# < # 6 # mX4 2 7 0 # 4 0 L.mX&X%X1 1 *X=X,XrX0 7 yXrXqXeX7               ",
"              $ mX0 $ 2 6 , 7 5 < 2 7 1 %X< %X$X, $X, 7 $X2 1 < bX1 < 7 # 2 , %X1 8 &X&X1 1 *X=X3X;X6 *X# MXrXeX6               ",
"qXqXqXqXqXqXqX$ mXMX$ 2 6 &X$ bX4 2 8 2 &X7 &X, 5 $X4 mX%X# 8 < mX# < mX6 1 5 *X< mX< &X8 8 ;X3X>X;X4X6 2 mXMXyX5 qXqXqXqXqXqXqX",
"pXtXpXpXtXpXtX$ w MX0 4 2 2 $ bX4 2 8 # &X8 < &X5 $X4 mX&X# 8 , mX2 %X4 1 w nX, < mX< *XbX8 2 4X3X;X5 0 w L.L.iX7 tXtXtXpXpXtXpX",
"eXeXuXuXuXeXuX$ w mX$ 6 2 $ $ $ 5 1 8 2 &XMX< < 5 %X# MX%X# 7 , MX8 , # , 5 MX*X1 MX< *X8 8 # rX5 =X1 2 6 MXrXpX6 uXuXuXeXeXuXeX",
"tXtXpXpXtXpXpX$ L.mX6 # 7 $ 0 $ 6 &X2 # &X$ 1 &X7 , &X2 , , 5 , 1 5 8 nX2 , 4 2 , 1 1 =XbX8 2 nXiX8 4 1 -X5 MXiX5 pXpXpXtXtXtXtX",
"eXeXeXuXeXeXeXbXmXmX$ $ $ 6 2 *X=X0 0 0 L.L.2 *XcXL.L.L.L.cXL.cXL.L.L.L.L.L.L.L.L.L.# =XbX$ # L.w L.L.L.L.L.L.aX5 eXuXeXeXuXuXuX",
"tXtXpXpXpXpXtX8 mXmXnXnXnX0 0 bX7 nX0 mXL.L.2 < L.L.L.L.cXL.L.L.L.L.L.L.L.L.L.L.L.L.2 2 0 $ 7 aXL.L.L.L.L.L.L.L.6 tXtXtXpXtXtXtX",
"eXuXuXuXeXeXuX8 L.L.w mXMXMXnXnXMXnX0 L.L.cX7 mXcXL.L.L.L.L.L.cXL.L.cXL.L.cXL.cXcXL.bXw L.MXcXL.cXL.cXL.cXcXL.L.7 uXeXuXeXeXeXeX",
"pXpXtXpXtXpXtX4 6 6 7 6 6 5 5 5 7 5 5 6 7 6 6 7 6 6 7 6 6 7 5 5 7 7 8 7 7 7 7 6 7 6 7 5 7 6 7 6 6 6 6 6 6 5 6 6 7 tXpXpXpXtXpXpX",
"uXuXuXuXeXuXeXuXuXeXeXuXeXuXeXeXuXuXuXuXuXuXuXeXeXeXuXeXeXuXeXkXqXeXuXeXeXeXeXeXuXeXeXeXeXeXuXeXuXeXuXeXeXuXuXeXuXeXuXuXeXeXuXeX",
"tXpXtXtXpXpXtXtXtXpXtXtXtXpXpXtXtXtXpXpXtXtXtXpXtXpXpXpXpXpXtXkXqXpXtXpXtXtXtXpXtXtXtXpXpXtXtXpXtXtXpXpXtXpXtXtXpXpXpXtXpXtXtXtX",
"uXuXuXeXuXeXeXeXuXeXuXuXuXuXuXuXuXuXeXuXeXeXeXuXeXuXuXeXeXuXuXkXqXuXuXuXuXeXuXeXeXeXeXuXuXeXeXuXuXeXeXeXuXeXeXuXuXeXuXeXuXuXeXeX",
"pXtXtXtXtXtXpXpXtXpXtXtXpXpXtXtXtXtXtXtXpXpXpXtXpXtXtXpXtX4 tXkXqXpX4 pXpXtXpXtXpXpXtXtXpXpXtXpXpXtXpXpXtXtXtXtXpXpXtXpXpXpXtXtX",
"uXeXuXuXeXeXuXeXuXuXuXuXeXuXuXuXeXuXeXuXeXuXuXuXuXuXuXeXuXeXeXkXqXeXeXeXeXuXeXeXeXeXuXeXuXeXeXeXeXuXeXeXuXeXeXuXeXeXuXuXuXeXuXeX",
"kXkXkXkXkXkXkXkXkXkXkXkXkXkXkXkXkXkXkXkXkXkXkXkXkXkXkXkXkXkXkXkXqXkXkXkXkXkXkXkXkXkXkXkXkXkXkXkXkXkXkXkXkXkXkXkXkXkXkXkXkXkXkXkX",
"                                                                                                                                "
};
