/* XPM */
static char *_486033929953[] = {
/* columns rows colors chars-per-pixel */
"64 64 256 2 ",
"   c black",
".  c #0000A8",
"X  c #00A800",
"o  c #00A8A8",
"O  c #A80000",
"+  c #A800A8",
"@  c #A85400",
"#  c gray66",
"$  c gray33",
"%  c #5454FC",
"&  c #54FC54",
"*  c #54FCFC",
"=  c #FC5454",
"-  c #FC54FC",
";  c #FCFC54",
":  c gray99",
">  c #ECECEC",
",  c gainsboro",
"<  c #D0D0D0",
"1  c #C0C0C0",
"2  c #B4B4B4",
"3  c gray66",
"4  c #989898",
"5  c gray55",
"6  c #7C7C7C",
"7  c gray44",
"8  c #646464",
"9  c gray33",
"0  c #484848",
"q  c gray22",
"w  c #2C2C2C",
"e  c #202020",
"r  c #FC0000",
"t  c #EC0000",
"y  c #E00000",
"u  c #D40000",
"i  c #C80000",
"p  c #BC0000",
"a  c #B00000",
"s  c #A40000",
"d  c #980000",
"f  c #880000",
"g  c #7C0000",
"h  c #700000",
"j  c #640000",
"k  c #580000",
"l  c #4C0000",
"z  c #400000",
"x  c #FCD8D8",
"c  c #FCB8B8",
"v  c #FC9C9C",
"b  c #FC7C7C",
"n  c #FC5C5C",
"m  c #FC4040",
"M  c #FC2020",
"N  c #FC0000",
"B  c #FCA85C",
"V  c #FC9840",
"C  c #FC8820",
"Z  c #FC7800",
"A  c #E46C00",
"S  c #CC6000",
"D  c #B45400",
"F  c #9C4C00",
"G  c #FCFCD8",
"H  c #FCFCB8",
"J  c #FCFC9C",
"K  c #FCFC7C",
"L  c #FCF85C",
"P  c #FCF440",
"I  c #FCF420",
"U  c #FCF400",
"Y  c #E4D800",
"T  c #CCC400",
"R  c #B4AC00",
"E  c #9C9C00",
"W  c #848400",
"Q  c #706C00",
"!  c #585400",
"~  c #404000",
"^  c #D0FC5C",
"/  c #C4FC40",
"(  c #B4FC20",
")  c #A0FC00",
"_  c #90E400",
"`  c #80CC00",
"'  c #74B400",
"]  c #609C00",
"[  c #D8FCD8",
"{  c #BCFCB8",
"}  c #9CFC9C",
"|  c #80FC7C",
" . c #60FC5C",
".. c #40FC40",
"X. c #20FC20",
"o. c #00FC00",
"O. c #00FC00",
"+. c #00EC00",
"@. c #00E000",
"#. c #00D400",
"$. c #04C800",
"%. c #04BC00",
"&. c #04B000",
"*. c #04A400",
"=. c #049800",
"-. c #048800",
";. c #047C00",
":. c #047000",
">. c #046400",
",. c #045800",
"<. c #044C00",
"1. c #044000",
"2. c #D8FCFC",
"3. c #B8FCFC",
"4. c #9CFCFC",
"5. c #7CFCF8",
"6. c #5CFCFC",
"7. c #40FCFC",
"8. c #20FCFC",
"9. c #00FCFC",
"0. c #00E4E4",
"q. c #00CCCC",
"w. c #00B4B4",
"e. c #009C9C",
"r. c #008484",
"t. c #007070",
"y. c #005858",
"u. c #004040",
"i. c #5CBCFC",
"p. c #40B0FC",
"a. c #20A8FC",
"s. c #009CFC",
"d. c #008CE4",
"f. c #007CCC",
"g. c #006CB4",
"h. c #005C9C",
"j. c #D8D8FC",
"k. c #B8BCFC",
"l. c #9C9CFC",
"z. c #7C80FC",
"x. c #5C60FC",
"c. c #4040FC",
"v. c #2024FC",
"b. c #0004FC",
"n. c #0000FC",
"m. c #0000EC",
"M. c #0000E0",
"N. c #0000D4",
"B. c #0000C8",
"V. c #0000BC",
"C. c #0000B0",
"Z. c #0000A4",
"A. c #000098",
"S. c #000088",
"D. c #00007C",
"F. c #000070",
"G. c #000064",
"H. c #000058",
"J. c #00004C",
"K. c #000040",
"L. c #282828",
"P. c #FCE034",
"I. c #FCD424",
"U. c #FCCC18",
"Y. c #FCC008",
"T. c #FCB400",
"R. c #003800",
"E. c #002800",
"W. c #9800E4",
"Q. c #8000CC",
"!. c #7400B4",
"~. c #60009C",
"^. c #500084",
"/. c #440070",
"(. c #340058",
"). c #280040",
"_. c #FCD8FC",
"`. c #FCB8FC",
"'. c #FC9CFC",
"]. c #FC7CFC",
"[. c #FC5CFC",
"{. c #FC40FC",
"}. c #FC20FC",
"|. c #FC00FC",
" X c #E000E4",
".X c #C800CC",
"XX c #B400B4",
"oX c #9C009C",
"OX c #840084",
"+X c #6C0070",
"@X c #580058",
"#X c #400040",
"$X c #FCE8DC",
"%X c #FCE0D0",
"&X c #FCD8C4",
"*X c #FCD4BC",
"=X c #FCCCB0",
"-X c #FCC4A4",
";X c #FCBC9C",
":X c #FCB890",
">X c #FCB080",
",X c #FCA470",
"<X c #FC9C60",
"1X c #F0945C",
"2X c #E88C58",
"3X c #DC8854",
"4X c #D08050",
"5X c #C87C4C",
"6X c #BC7848",
"7X c #B47044",
"8X c #A86840",
"9X c #A0643C",
"0X c #9C6038",
"qX c #905C34",
"wX c #885830",
"eX c #80502C",
"rX c #744C28",
"tX c #6C4824",
"yX c #5C4020",
"uX c #543C1C",
"iX c #483818",
"pX c #403018",
"aX c #382C14",
"sX c #28200C",
"dX c #600064",
"fX c #006464",
"gX c #006060",
"hX c #00001C",
"jX c #00002C",
"kX c #302410",
"lX c #480048",
"zX c #500050",
"xX c #000034",
"cX c gray11",
"vX c #4C4C4C",
"bX c gray36",
"nX c gray25",
"mX c gray19",
"MX c #343434",
"NX c #D8F4F4",
"BX c #B8E8E8",
"VX c #9CDCDC",
"CX c #74C8C8",
"ZX c #48C0C0",
"AX c #20B4B4",
"SX c #20B0B0",
"DX c #00A4A4",
"FX c #009898",
"GX c #008C8C",
"HX c #008484",
"JX c #007C7C",
"KX c #007878",
"LX c #007474",
"PX c #007070",
"IX c #006C6C",
"UX c #980088",
/* pixels */
"                                                                                                                                ",
"eXeXeXeXeXeXeXeXeXeXeXeXeXeXeXeXeXeXeXeXeXeXeXeXeXeXeXeXeXeXeXeXeXeXeXeXeXeXeXeXeXeXeXeXeXeXeXeXeXeXeXeXeXeXeXeXeXeXeXeXeXeXeXeX",
"eXuXuXkXkXkXuXuXkXkXuXuXuXuXkXuXkXkXkXkXuXuXuXuXkXkXuXuXkXuXkXuXkXkXuXkXuXkXkXuXkXkXuXuXuXuXkXkXuXuXkXuXuXkXkXuXuXkXkXuXuXkXkXsX",
"eXpX4 pXpXtXpXpXpXpXtXpXtXtXpXpXpXpXpXpXpXpXtXpXpXtXpXpXtXpXtXtXpXtXpXtXtXtXpXpXtXpXpXpXpXtXtXtXtXtXpXpXpXpXtXpXtXtXtXtXpX4 tXsX",
"eXuXuXuXuXuXkXuXuXkXkXkXuXuXkXuXkXkXkXuXkXkXuXkXuXuXkXuXuXkXkXuXuXuXkXuXkXuXkXuXuXkXuXkXuXuXkXkXuXuXkXkXkXkXuXkXuXkXkXuXkXkXkXsX",
"eXpXtXpXtXpXpXpXpXtXtXtXtXtXtXpXpXtXtXpXpXtXpXpXpXtXtXpXpXpXpXpXtXpXpXtXtXpXpXpXtXtXtXpXpXtXtXtXpXpXtXtXpXpXtXpXtXpXpXtXpXpXpXsX",
"eXkXuXkXuXuXkXkXuXuXkXuXkXuXuXuXkXuXuXkXuXkXkXuXuXuXkXkXuXkXuXuXkXuXkXuXuXkXkXuXkXkXkXkXkXuXkXkXuXkXkXkXuXuXuXkXuXkXkXkXuXkXkXsX",
"eXpXpXtXtXtXtXcXcXcXL.cXL.L.mXMXMXnXmXMX0 nX0 0 0 0 0 nXmXmXL.uXbX8 4X7X0X7X5XcXsX2 2 # 8 -X=X0XwXL.L.L.L.L.cXcXL.pXtXpXtXpXtXsX",
"eXkXkXuXkXkXkXcXL.0 $ 7 nX8 $ 7 8 6 6 7 8 0 0 0 0 0 nXmX0 8X8X6X6X6X5X3X4X5X3XcX0 2 8 L.$ 4 =X5 0XL.L.L.mXL.cXcXL.kXkXkXuXkXuXsX",
"eXtXtXpXpXpXpXL.L.0 $ $ 8 7 7 8 $ 6 7 7 bXMXnXnX$ 0 7 4X5X5X6X3X2X2X2X2X2X3X0XsX# < L.sXMXyX2 MXyXcXmXMXmXL.cXsXsXtXpXpXpXtXpXsX",
"eXkXkXuXuXuXkXcXcXL.MXMXnXnX0 nXnXmX0 6 8X5X5X4X3X3X2X<XV <XV V V 1X2X2X2X4XiX# %X%X2 < %X-XsXcXwXtXL.nXnXL.L.cXcXkXkXkXkXkXkXsX",
"eXpXpXtXtXtXtXL.L.L.nXnXMXnXnX0 7 3X5X0X4X4XV V V 1XV 2XV V V V V 2X3X2X3X0XcX$X%XG %X%X*X0 sX0X4X0XL.nXnXmXL.cXcXtXpXtXpXpXtXsX",
"eXuX4 uXkXkXuXL.L.mXMXnX8 8X4X3X6X5X5X3X3XV V <XV 1X1XV V 2XV V 2X2X2X3X3XrXsX%XG %X%X[ 0 cX6X4X4X7XtXMX0 nXL.cXMXkXkXuXkX4 uXsX",
"eXtXtXpXpXpXtXL.mX$ 4X6X8X7 wX5X5XV 3X2X2X2X<X2X1X2XV 1XV 1XV V 2X2X2X3X5XsX$ > %XG [ 0 L.iX3X3X4X0X7XmX0 0 mXsXsXtXtXpXpXpXpXsX",
"eXsXsXsXsXsXsX# ;X-X*X%X-X# cXsXaX4XV 2X1XV 2XV V 2X2X2X2X2X2X3X3X2X3X5XtX0 %XG $X%XcXyX4X2X3X3X5X4X0X7XiX$ 0 L.L.sXsXsXsXsXsXsX",
"              =X*X*X4 0 0 6 1 $ sXiX0X2X2X2X1X2X2X2X2X2X2X2X2X2X3X3X2X5XpX5 $X: G 8 rX4X3X3X5X4X3X5X0X6XyX$ $ pXcX              ",
"              # < *X$ mX0 nXG %X2 sXsXyX5X2X2X2X2X2X2X3X5X2X2X2X3X3X5XwXMX%X: G 7 L.4X3X5X4X5X5X5X6X6XwX0XbX$ MXcX              ",
"eXeXeXeXeXeXeXbX=X&X7 7 # %X%X[ %X%X%X2 0 uX0X3X2X3X3X5X3X3X3X4 4X8X8X5 4 2 1 L.0X3X5X5X6X6X3X>X>X# # 4X7X$ 8 $ cXeXeXeXeXeXeXeX",
"kXuXkXuXkXuXkX6XbX$ 1 [ G G G G %X%X%X%X%X0 aXyX2X3X5X6X4X3X=X*X1 ;X4 2 4 8X# 6X3X3X5X3X4 4 nXmXmXcXL.L.mX0 bXyXL.kXkXkXuXuXkXuX",
"pXtXtXtXpXpXpX7 tXsXcXL.$ 6 < : G G G G G [ 2 0 rX6X0X4X# -X*X*X*X=X*X2 5 8X8X8X4 -X# 0 L.L.L.L.L.cXcXcXcXcXcXsXsXtXtXpXtXpXpXpX",
"kXkXkXuXkXuXkX$ 8X0XyXyXsXL.L.nX7 2 G G G %XG %X$ 8X6X# # -X*X*X*X%X-X8X6X5 4 4 :X< L.L.L.L.cXL.cXcXcXcXcXcXcXsXL.kXuXkXkXkXkXuX",
"tXtXtXpXtXpXtXL.8X8X2X3XV 2X3X2X2X6X0XrXyXsXMX8 4 8X# # ;X2 ;X=X:X6X6X4X4X4X# %X5 L.L.mXL.L.cXcXcXcXcXcXcXcXcXcXsXpXpXtXpXpXtXpX",
"kXkXuXuXkXkXkXmX8 # 3XV 3X3X2X2X2X3X2X2X3X5X6X0X5 8X# 4 8X0X7 # 3X4 6X# ;X=X*X< L.L.mXL.L.sXcXcXcXcXsXcXcXcXcXcXcXuXkXkXkXuXkXuX",
"pXpXtXpXtXpXtXmXMX5 3X2X2X2X2X2X2X3X3X2X4X3X6XbX# # # 4X8X8X>X3X4 # # # -X=X*X7 L.MXL.L.L.L.cXcXcXcXcXcXcXcXcXcXcXpXtXtXtXtXpXpX",
"kXkXkXkXkXkXuXmX0 nX4X2XV V V V 2X2X1X>X;X-X=X:X# # 4 2 # # 6X4X4 2 =X&X&X%X%XmXMXmXL.L.L.sXcXsXcXsXcXsXcXcXcXsXMXuXkXkXkXuXkXkX",
"pXtXtXpXtXtXpXmX0 nX3X4X<XV V V 1XV V 2X2XV 3X3X# :X< -X# 6XbX;X2 -X*X*X%X%X7 mXMXnXL.L.L.sXcXcXcXsXcXcXcXcXsXsXsXtXpXpXpXpXpXtX",
"uXuXuXuXuXkXuXMX$ 0 # 3XV V <XV V V V 2X2X2X5X4X4 # 2 2 # >X6X1 # 2 2 < # 0 L.MXMXMXL.L.L.L.sXsXcXsXcXsXcXcXL.aXsXuXkXkXkXkXuXkX",
"tXpXpXpXtXpXtXnX$ bX5 3X5XB V <X<XV 1XV 2X2X3X>X4X8X:X2 %X< 1 iXiXmXMX0 yXnX$ MXmXMXL.sXsXsXsXcXcXsXsXsXsXcXsXsXcXpXtXtXtXtXpXtX",
"uXkXkXkXuXuXkX0 8 8 0 7 >X3X<XV 2XV V 2X2X2X2X1X4X>X4X4 2 # # %X-X7 0 iXuXuXiXiXiXpXuX0 $ nXsXsXcXsXsXsXsXcXcXsXL.kXkXuXuXkXkXkX",
"pXtXtXpXtXpXtX0 bX7 $ 0 >X>XV <XV V V 2X2X2X2X3X>X:X# 4 4 # 4 2 2 -X=XyXnXyXuXtXyXpXyXiXiXuXnXpXiXcXsXsXcXsXsXsXsXtXpXtXpXtXpXpX",
"sXsXsXsXsXsXsXnX8 7 bXnX5 3XB V <XV V 2X2X2X2X3X3XbX2 2 # 4X7 3X3X6X4X-X5 tXyX4XrXiXtXyXyXpX8 uXiXaXsXsXsXcXsXsXcXsXsXsXsXsXsXsX",
"              0 bX7 8 0 7 # <XB <XV 2X2X2X3X3X4XyXuX2 %X1 7 6X3X4X1X5X4X>X:XbX5XtXyX0X7XrXiXpX7 pXmXsXsXsXsXsXsXsX              ",
"              $ 8 7 6 $ MXbX1XB <XB <X2X2X3X0XMX< %X%X$XnXtX2X2X2X2X3X3X:X-X3XwX7X5X>X1X4X7XtXyXiX0 iXcXcXsXsXsXL.              ",
"eXeXeXeXeXeXeX$ 7 8 6 bX0 $ 3XB B B V B 2XwXmX$ > %X$X%XL.7X3X3X2X3X5X;X=X4XwX0X7X1X3X6X7X0XtXyXuXsXiXnXL.sXsXsXcXeXeXeXeXeXeXeX",
"eXkXuXuXuXkXkX$ 8 6 6 8 $ 0 3X4XB B 2XB 3XL.$ , $X> G $XiX3X2X2X3X3X3X< ;X0XwX0X0X5X5X7X0XwXyXuXiXpXpXsXsXsXMX0 cXuXkXuXuXuXkXsX",
"eXpX4 tXpXpXpX0 8 6 5 6 8 0 # :X2XV 0XmXsX$X> > : : > $ 6XB V 2X2X2X3X5X5X3X%X0XrX0X3X7X0X0XtXyXyXuXiXiXsXpXiXuXL.pXtXtXpX4 pXsX",
"eXuXkXuXuXkXuX0 8 6 5 6 7 $ 6 =X6XbXaXL.8 > : : : > 4 mX2XV B B 2X2X3X5X3X5X%XrX0XrX5X5X0XwXyXyXyXiXtXsXsXiXyXuXL.kXuXkXuXkXkXsX",
"eXtXtXtXtXtXtX0 8 6 5 6 7 $ 0 2 4XL.L.$ $X: , , : > $ mXV B V B B 2X2X3X2X5X%X3X0X0X0X4X0XwXyXyXyXiXbXsXsXyXyXtXL.tXpXpXtXtXpXsX",
"eXkXkXkXuXkXuX0 bX6 5 5 8 8 nX6 >XL.$ $X# 8 8 4 > # mXpXB B B V V B V 3X5X5X:XrX0X0X6X5X0XrXyXyXiXuXL.L.0 yXrXtXcXuXuXuXuXkXuXsX",
"eXpXpXpXtXpXpX0 bX7 5 4 # $X$X< < < [ 2 2 $ 0 4 # L.L.bXB V B 1X3X4X:X2 # 4 < 3X6X7X0X0XrXtXrXuXMXcXcX$ rXyXtXuXL.tXpXpXtXtXpXsX",
"eXuXuXkXkXuXuX0 bX8 1 5 7 6 1 [ G %X2 G > # 1 G MXL.sX6X3X4X4X=X# 4 4 $ bX8 2 6X7XwXwXrXtXyXuXiXcXcXuX0XtXyXyXuXcXuXkXkXkXuXkXsX",
"eXpXtXpXtXpXpX0 bX2 %X1 7 7 0 0 0 # 1 $X: G : G nXbX8X4X-X4 5 7 0 $ $ $ 8 8 5 7X0XwXyXMXyXMXiXcXcXuXrXyXyXyXyXuXL.pXtXtXtXtXtXsX",
"eXkXkXuXkXuXkX0 # 2 [ %X< 7 8 $ 0 4 4 2 >X2 -X5 $ 0 nX0 $ bX8 8 8 8 8 8 8 8 6 6 5 5 5 4 5 7 0 L.L.pXuXyXyXtXrXuXMXuXuXkXkXuXuXsX",
"eXtXtXpXtXtXpX0 0 1 4 %X[ 2 8 bX0 8 2 1 # bX0 8 < < 4 7 8 8 8 8 8 8 bX8 8 bX8 7 6 5 6 # 1 < 4 1 # iXpXiXyXtXwXyXL.tXpXpXtXtXtXsX",
"eXuX4 uXuXkXkX0 nX8 6 # %X*X8 bX$ nX0 MXMX8 < < 6 # , # 8 8 8 8 8 8 8 8 8 8 7 8 6 6 %X, 4 # # 8 7 L.pXuXyXtX0XiXcXkXkXuXuX4 kXsX",
"eXpXpXpXtXpXpX0 MX0 < 7 < %X7 8 $ 0 0 $ $ 6 %X< 4 [ 5 0 8 8 7 8 8 7 8 7 8 8 8 7 8 6 , &X0 7 # L.L.cXpXpXiXtXwXuXcXtXpXpXtXpXtXsX",
"eXsXsXsXsXsXsXnXL.nX7 1 6 *X8 8 bX0 bX$ $ 6 *X*X2 %X4 $ 8 6 6 7 8 $ 0 nXmXL.cXcXcXcX< %X0 8 # yX6XcXcXL.aXyXrXuXL.sXsXsXsXsXsXsX",
"              MXL.nX$ 2 7 *XbX8 # 4 8 4 2 # %X[ *X%X-X4 1 4 8 4 cX5 # 8 MX4 5 MXsXL.*X%X2 2 =X-X1XyXMX8 iXyXrXtXL.              ",
"              nXL.MX0 # 7 < bX6 < # 8 2 %X1 %X%X< %X< 8 %X# 2 < 0 2 < 8 4 # < %X2 $ *X*X2 2 =X-X4X# 8 =X4 L.yXtXcX              ",
"eXeXeXeXeXeXeX0 L.L.nX# 7 *X0 0 5 # $ # *X8 *X< 7 %X5 cX&X4 $ < cX4 1 L.8 2 7 =X1 cX< *X$ $ :X4X3X# 6X8 # cXL.iXMXeXeXeXeXeXeXeX",
"kXuXkXkXuXkXuXnXcXL.MX5 # # 0 0 5 # $ 4 *X$ < *X7 %X5 cX*X4 $ < sX# %X5 2 cXL.< 1 cX1 =X0 $ # 6X4X:X8XMXsXcXcXaXcXuXuXuXkXkXuXkX",
"tXtXpXpXpXtXpXnXcXL.nX8 # 0 nX0 6 2 $ # *XL.1 < 6 %X4 L.%X4 8 < L.$ < 4 < 6 aX=X2 L.1 =X$ $ 4 yX8X-X2 # 7 L.yXL.L.pXpXpXtXtXpXtX",
"uXuXkXkXuXkXkX0 cXL.8 4 8 0 MX0 7 *X# 4 *X0 2 *X8 < *X# < < 7 < 2 7 $ L.# < 5 # < 2 2 -X0 $ # L.L.$ 5 2 ;X8XaXL.L.kXkXkXuXuXuXuX",
"tXtXtXpXtXtXtX0 cXL.nXnX0 8 # =X-XMXMXMXcXcX# =X0 cXcXcXcXcXcXcXcXcXcXcXcXcXcXcXcXcX4 -X0 0 4 cXL.cXcXcXcXcXcXL.L.tXpXtXtXpXpXpX",
"uXuXkXkXkXkXuX$ L.L.L.mXmXMXMX0 8 mXMXL.cXcX# 1 cXcXcXcXcXcXcXcXcXcXcXcXcXcXcXcXcXL.# # mX0 8 L.cXcXcXcXcXcXcXcXcXuXuXuXkXuXuXuX",
"tXpXpXpXtXtXpX$ cXcXcXL.L.L.mXmXL.L.MXcXcXcX8 L.cXcXcXcXcXcXcXcXcXcXcXcXcXL.cXcXcXcXL.cXcXL.cXcXcXcXcXcXcXcXcXcXL.pXtXpXtXtXtXtX",
"kXkXuXkXuXkXuXMXL.cXcXL.MXcXcXcXMXL.MXcXcXL.MXMXL.cXMXL.MXcXcXMXL.L.MXcXMXnXMXcXnXcXMXnXMXcXMXnXcXnXMXnXMXcXL.MXL.uXkXkXkXuXkXkX",
"pXpXpXpXtXpXtXpXpXtXtXpXtXpXtXtXpXpXpXpXpXpXpXtXtXtXpXtXtXpXtXsXeXtXpXtXtXtXtXtXpXtXtXtXtXtXpXtXpXtXpXtXtXpXpXtXpXtXpXpXtXtXpXtX",
"uXkXuXuXkXkXuXuXuXkXuXuXuXkXkXuXuXuXkXkXuXuXuXkXuXkXkXkXkXkXuXsXeXkXuXkXuXuXuXkXuXuXuXkXkXuXuXkXuXuXkXkXuXkXuXuXkXkXkXuXkXuXuXuX",
"pXpXpXtXpXtXtXtXpXtXpXpXpXpXpXpXpXpXtXpXtXtXtXpXtXpXpXtXtXpXpXsXeXpXpXpXpXtXpXtXtXtXtXpXpXtXtXpXpXtXtXtXpXtXtXpXpXtXpXtXpXpXtXtX",
"kXuXuXuXuXuXkXkXuXkXuXuXkXkXuXuXuXuXuXuXkXkXkXuXkXuXuXkXuX4 uXsXeXkX4 kXkXuXkXuXkXkXuXuXkXkXuXkXkXuXkXkXuXuXuXuXkXkXuXkXkXkXuXuX",
"pXtXpXpXtXtXpXtXpXpXpXpXtXpXpXpXtXpXtXpXtXpXpXpXpXpXpXtXpXtXtXsXeXtXtXtXtXpXtXtXtXtXpXtXpXtXtXtXtXpXtXtXpXtXtXpXtXtXpXpXpXtXpXtX",
"sXsXsXsXsXsXsXsXsXsXsXsXsXsXsXsXsXsXsXsXsXsXsXsXsXsXsXsXsXsXsXsXeXsXsXsXsXsXsXsXsXsXsXsXsXsXsXsXsXsXsXsXsXsXsXsXsXsXsXsXsXsXsXsX",
"                                                                                                                                "
};
